<?xml version="1.0" encoding="UTF-8"?>
<svg id="Capa_1" data-name="Capa 1" xmlns="http://www.w3.org/2000/svg" viewBox="0 0 50 33.33">
  <path d="M43.89,5.73c-1.83-1.24-8.18-4.94-18.96-4.94-1.22,0-2.49.05-3.82.15C12.03,1.64,1.95,4.94.91,12.09c-1.13,7.73,7.86,11.02,11.78,12.08.2.05.44.12.71.2.68.19,1.53.43,2.28.6l.33.07-.02.33c-.16,2.45-1.72,4.4-3.07,5.64,2.29-.94,5.56-2.69,6.5-5.29l.09-.24.26-.02c.39-.03.85-.06,1.35-.09,6.32-.41,21.11-1.36,25.32-5.39,2.01-1.93,2.93-4.06,2.73-6.34-.29-3.39-3.03-6.38-5.28-7.91Z" style="fill: #fefefe; stroke-width: 0px;"/>
  <path d="M49.97,13.57c-.32-3.65-3.11-6.78-5.62-8.48C42.26,3.66,34.41-.89,21.04.15,11.65.88,1.22,4.37.11,11.98c-1.22,8.34,8.24,11.83,12.37,12.94.2.05.43.12.7.19.59.17,1.31.37,1.98.53-.46,3.72-4.63,6.2-4.67,6.22l-2.5,1.46,2.82-.75c.31-.08,7.49-2.04,9.29-6.36.33-.02.69-.05,1.09-.07,6.41-.41,21.41-1.38,25.84-5.62,2.19-2.1,3.19-4.44,2.97-6.97ZM21.11,25.37c-.5.03-.96.06-1.35.09l-.26.02-.09.24c-.94,2.6-4.21,4.35-6.5,5.29,1.35-1.24,2.92-3.19,3.07-5.64l.02-.33-.33-.07c-.74-.17-1.59-.41-2.28-.6-.27-.08-.51-.14-.71-.2C8.77,23.11-.23,19.81.91,12.09,1.95,4.94,12.03,1.64,21.11.93c1.33-.1,2.61-.15,3.82-.15,10.77,0,17.13,3.7,18.96,4.94,2.25,1.53,4.98,4.52,5.28,7.91.2,2.28-.72,4.42-2.73,6.34-4.21,4.04-19.01,4.99-25.32,5.39Z" style="stroke-width: 0px;"/>
  <g>
    <g>
      <path d="M11.52,14.13c-.71,0-1.31-.22-1.78-.65-.5-.45-.75-1.05-.75-1.79s.23-1.43.7-2.18c.52-.83,1.11-1.25,1.76-1.25.34,0,.72.08,1.14.24.53.21.8.46.8.75,0,.13-.04.25-.13.35-.09.1-.19.15-.32.15-.1,0-.19-.03-.26-.09-.07-.06-.15-.12-.22-.18-.2-.16-.54-.24-1.01-.24-.35,0-.71.32-1.05.95-.32.58-.47,1.08-.47,1.51,0,.46.16.82.47,1.08.29.25.67.37,1.13.37.21,0,.43-.06.67-.17l.6-.32c.1-.06.18-.08.22-.08.13,0,.24.05.33.15.09.1.14.22.14.35,0,.25-.27.5-.8.73-.47.21-.86.31-1.17.31Z" style="stroke-width: 0px;"/>
      <path d="M16.28,14.11c-.58,0-1.09-.22-1.51-.65-.47-.48-.72-1.12-.74-1.93-.02-.79.18-1.48.59-2.07.49-.71,1.16-1.06,2.03-1.06.69,0,1.22.32,1.58.95.28.51.42,1.13.41,1.85-.01.77-.21,1.43-.6,1.97-.44.62-1.03.93-1.77.93ZM16.59,9.45c-.51,0-.91.24-1.19.73-.23.39-.34.84-.34,1.34s.14.9.41,1.18c.23.23.5.35.81.35.36,0,.67-.13.93-.4.3-.29.45-.69.47-1.18.05-1.34-.31-2.02-1.09-2.02Z" style="stroke-width: 0px;"/>
      <path d="M26.24,14.23c-.28,0-.45-.15-.5-.45-.06-.38-.13-.92-.19-1.62l-.18-1.62c-.03-.24-.09-.47-.18-.7-.12-.31-.25-.47-.39-.47-.13,0-.37.11-.72.33-.33.2-.55.36-.66.48,0,.33,0,.65.03.98l.16,1.39c.07.55.1,1,.1,1.36,0,.15-.05.28-.14.38s-.22.15-.37.15-.27-.05-.37-.15c-.1-.1-.14-.22-.14-.38,0-.42-.04-1.04-.13-1.86-.09-.82-.13-1.44-.13-1.86,0-.37-.05-.65-.16-.86-.24.11-.49.29-.74.54l-.61.69c-.06.08-.14.19-.27.33,0,.21-.02.52-.06.92-.04.41-.06.71-.06.9,0,.1.02.25.05.44.03.19.05.32.05.41,0,.14-.05.26-.16.36s-.23.15-.37.15c-.39,0-.59-.45-.59-1.34,0-.21.02-.52.06-.93.04-.41.06-.72.06-.93,0-.18-.02-.46-.05-.83-.03-.37-.05-.65-.05-.83,0-.79.18-1.18.53-1.18.14,0,.26.06.37.18.11.12.17.25.17.39,0,.07,0,.17-.03.31s-.03.24-.03.32v.55c.19-.37.46-.71.81-1.01.35-.3.65-.45.9-.45.55,0,.92.27,1.13.81.19-.25.42-.44.68-.57s.57-.19.91-.19c.58,0,.98.31,1.19.94.04.13.11.61.21,1.46.1.6.22,1.59.38,2.99.01.14-.04.26-.14.35-.1.1-.23.15-.38.15Z" style="stroke-width: 0px;"/>
      <path d="M28.82,11.43c0,.21,0,.52.02.94.01.42.02.73.02.94,0,.15-.05.28-.14.38-.09.1-.22.15-.37.15s-.27-.05-.37-.15-.14-.22-.14-.38c0-.21,0-.52-.02-.94-.01-.42-.02-.73-.02-.94,0-.33.02-.73.05-1.22.03-.49.05-.9.05-1.22,0-.16.05-.28.14-.38.1-.1.22-.15.37-.15s.27.05.37.15c.1.1.14.22.14.38,0,.33-.02.73-.05,1.22-.03.49-.05.9-.05,1.22ZM28.58,7.95c-.17,0-.31-.06-.43-.18-.12-.12-.18-.26-.18-.43s.06-.31.18-.43c.12-.12.27-.18.43-.18s.31.06.43.18.18.26.18.43-.06.31-.18.43c-.12.12-.26.18-.43.18Z" style="stroke-width: 0px;"/>
      <path d="M32.61,14.13c-.71,0-1.31-.22-1.78-.65-.5-.45-.75-1.05-.75-1.79s.23-1.43.7-2.18c.52-.83,1.11-1.25,1.76-1.25.34,0,.72.08,1.14.24.53.21.8.46.8.75,0,.13-.04.25-.13.35-.09.1-.19.15-.32.15-.1,0-.19-.03-.26-.09-.07-.06-.15-.12-.22-.18-.2-.16-.54-.24-1.01-.24-.35,0-.71.32-1.05.95-.32.58-.47,1.08-.47,1.51,0,.46.16.82.47,1.08.29.25.67.37,1.13.37.21,0,.43-.06.67-.17l.6-.32c.1-.06.18-.08.22-.08.13,0,.24.05.33.15.09.1.14.22.14.35,0,.25-.27.5-.8.73-.47.21-.86.31-1.17.31Z" style="stroke-width: 0px;"/>
      <path d="M38.94,9.79c-.19,0-.32-.06-.4-.19-.05-.09-.1-.28-.14-.56-.26.07-.66.19-1.2.36-.56.22-.84.5-.84.82.1.04.21.07.31.08.8.14,1.39.34,1.78.59.57.36.85.89.85,1.58,0,.57-.24.99-.73,1.28-.41.24-.92.35-1.54.35-.46,0-.89-.08-1.3-.23-.53-.19-.8-.47-.8-.81,0-.14.05-.26.16-.36.11-.1.23-.16.37-.16.11,0,.25.08.42.25.08.08.27.15.56.2.23.04.43.06.59.06.29,0,.55-.03.77-.1.32-.1.48-.26.48-.48,0-.47-.33-.79-.99-.96l-.54-.12c-.46-.1-.79-.22-.98-.35-.28-.19-.42-.49-.42-.88,0-.73.34-1.24,1.03-1.55.21-.09.54-.21,1-.34s.79-.24.98-.33c.14-.06.3-.09.46-.09.15,0,.27.05.37.15.1.1.14.22.14.38,0,.1.02.25.07.44.04.19.07.34.07.44,0,.16-.05.28-.14.38-.1.1-.22.15-.37.15Z" style="stroke-width: 0px;"/>
    </g>
    <g>
      <path d="M18.26,16.95c-.19,0-.32-.06-.4-.19-.05-.09-.1-.28-.14-.56-.26.07-.66.19-1.2.36-.56.22-.84.5-.84.82.1.04.21.07.31.08.8.14,1.39.34,1.78.59.57.36.85.89.85,1.58,0,.57-.24.99-.73,1.28-.41.24-.92.35-1.54.35-.46,0-.89-.08-1.3-.23-.53-.19-.8-.47-.8-.81,0-.14.05-.26.16-.36.11-.1.23-.16.37-.16.11,0,.25.08.42.25.08.08.27.15.56.2.23.04.43.06.59.06.29,0,.55-.03.77-.1.32-.1.48-.26.48-.48,0-.47-.33-.79-.99-.96l-.54-.12c-.46-.1-.79-.22-.98-.35-.28-.19-.42-.49-.42-.88,0-.73.34-1.24,1.03-1.55.21-.09.54-.21,1-.34.46-.13.79-.24.98-.33.14-.06.3-.09.46-.09.15,0,.27.05.37.15.1.1.14.22.14.38,0,.1.02.25.07.44.04.19.07.34.07.44,0,.16-.05.28-.14.38s-.22.15-.37.15Z" style="stroke-width: 0px;"/>
      <path d="M21.57,21.27c-.58,0-1.09-.22-1.51-.65-.47-.48-.72-1.12-.74-1.93-.02-.79.18-1.48.59-2.07.49-.71,1.16-1.06,2.03-1.06.69,0,1.22.32,1.58.95.28.51.42,1.13.41,1.85-.01.77-.21,1.43-.6,1.97-.44.62-1.03.93-1.77.93ZM21.88,16.62c-.51,0-.91.24-1.19.73-.23.39-.34.84-.34,1.34s.14.9.41,1.18c.23.23.5.35.81.35.36,0,.67-.13.93-.4.3-.29.45-.69.47-1.18.05-1.34-.31-2.02-1.09-2.02Z" style="stroke-width: 0px;"/>
      <path d="M28.91,21.33c-.3,0-.47-.16-.51-.49l-.15-1.14c-.05-.41-.07-.79-.07-1.14,0-.1,0-.26.02-.49s.02-.4.02-.5c0-.75-.14-1.13-.42-1.13-.39,0-.76.23-1.12.69-.32.42-.57.95-.75,1.59,0,.14-.02.31-.05.51-.02.17-.03.34-.03.51,0,.1.01.26.03.47.02.21.03.36.03.47,0,.16-.05.28-.14.38s-.22.15-.37.15-.28-.05-.37-.15c-.09-.1-.14-.22-.14-.38,0-.1-.01-.26-.03-.47-.02-.21-.03-.36-.03-.47,0-.36.03-.85.08-1.49.05-.63.08-1.13.08-1.49,0-.11,0-.28-.02-.49-.01-.22-.02-.38-.02-.49,0-.15.05-.27.15-.37.1-.1.22-.14.37-.14.32,0,.49.23.53.68l.02.61c.58-.78,1.18-1.17,1.8-1.17.56,0,.94.24,1.16.73.15.33.23.81.24,1.45v1.01c0,.29.03.66.11,1.12.07.46.11.83.11,1.11,0,.15-.05.28-.15.37s-.22.14-.37.14Z" style="stroke-width: 0px;"/>
      <path d="M33.69,16.95c-.19,0-.32-.06-.4-.19-.05-.09-.1-.28-.14-.56-.26.07-.66.19-1.2.36-.56.22-.84.5-.84.82.1.04.21.07.31.08.8.14,1.39.34,1.78.59.57.36.85.89.85,1.58,0,.57-.24.99-.73,1.28-.41.24-.92.35-1.54.35-.46,0-.89-.08-1.3-.23-.53-.19-.8-.47-.8-.81,0-.14.05-.26.16-.36.11-.1.23-.16.37-.16.11,0,.25.08.42.25.08.08.27.15.56.2.23.04.43.06.59.06.29,0,.55-.03.77-.1.32-.1.48-.26.48-.48,0-.47-.33-.79-.99-.96l-.54-.12c-.46-.1-.79-.22-.98-.35-.28-.19-.42-.49-.42-.88,0-.73.34-1.24,1.03-1.55.21-.09.54-.21,1-.34.46-.13.79-.24.98-.33.14-.06.3-.09.46-.09.15,0,.27.05.37.15.1.1.14.22.14.38,0,.1.02.25.07.44.04.19.07.34.07.44,0,.16-.05.28-.14.38s-.22.15-.37.15Z" style="stroke-width: 0px;"/>
    </g>
  </g>
</svg>