<?xml version="1.0" encoding="UTF-8"?>
<svg id="Capa_1" data-name="Capa 1" xmlns="http://www.w3.org/2000/svg" viewBox="0 0 150 100">
  <path d="M131.67,17.18c-5.48-3.72-24.55-14.83-56.88-14.83-3.66,0-7.48.14-11.47.45C36.08,4.91,5.86,14.81,2.72,36.26c-3.4,23.18,23.59,33.07,35.35,36.24.6.16,1.32.36,2.12.59,2.05.58,4.6,1.3,6.83,1.8l1,.22-.06.99c-.47,7.36-5.15,13.2-9.22,16.93,6.86-2.81,16.67-8.06,19.5-15.86l.26-.73.79-.05c1.18-.08,2.54-.17,4.05-.27,18.95-1.22,63.34-4.08,75.97-16.18,6.03-5.78,8.78-12.18,8.19-19.03-.88-10.17-9.08-19.13-15.83-23.73Z" style="fill: #fefefe; stroke-width: 0px;"/>
  <path d="M149.91,40.71c-.95-10.96-9.33-20.33-16.85-25.45C126.79,10.99,103.24-2.66,63.12.46,34.95,2.65,3.66,13.11.32,35.93c-3.67,25.02,24.72,35.49,37.1,38.83.59.16,1.3.36,2.09.58,1.77.5,3.92,1.1,5.93,1.59-1.38,11.17-13.89,18.6-14.01,18.67l-7.51,4.39,8.45-2.25c.93-.25,22.46-6.12,27.86-19.07.99-.07,2.08-.14,3.27-.21,19.22-1.24,64.24-4.13,77.51-16.86,6.56-6.29,9.56-13.32,8.9-20.9ZM63.34,76.12c-1.51.1-2.87.18-4.05.27l-.79.05-.26.73c-2.82,7.8-12.64,13.05-19.5,15.86,4.06-3.73,8.75-9.56,9.22-16.93l.06-.99-1-.22c-2.23-.5-4.78-1.22-6.83-1.8-.8-.23-1.52-.43-2.12-.59C26.31,69.33-.68,59.44,2.72,36.26,5.86,14.81,36.08,4.91,63.32,2.8c3.99-.31,7.82-.45,11.47-.45,32.32,0,51.4,11.11,56.88,14.83,6.75,4.59,14.95,13.56,15.83,23.73.59,6.85-2.16,13.26-8.19,19.03-12.63,12.11-57.02,14.97-75.97,16.18Z" style="stroke-width: 0px;"/>
  <g>
    <g>
      <path d="M34.56,42.38c-2.14,0-3.92-.65-5.35-1.94-1.5-1.35-2.25-3.14-2.25-5.36s.7-4.3,2.11-6.55c1.56-2.5,3.32-3.75,5.28-3.75,1.02,0,2.16.24,3.42.72,1.59.62,2.39,1.37,2.39,2.25,0,.4-.13.75-.39,1.06-.26.31-.58.46-.97.46-.3,0-.57-.09-.79-.27-.22-.18-.44-.36-.65-.54-.61-.49-1.62-.73-3.02-.73-1.06,0-2.12.95-3.16,2.84-.95,1.74-1.42,3.25-1.42,4.52,0,1.38.47,2.46,1.41,3.25.88.74,2,1.11,3.38,1.11.63,0,1.29-.17,2-.5l1.81-.97c.31-.17.54-.25.67-.25.39,0,.72.15,1,.46.28.31.42.66.42,1.05,0,.76-.8,1.5-2.41,2.2-1.41.62-2.57.94-3.5.94Z" style="stroke-width: 0px;"/>
      <path d="M48.84,42.32c-1.75,0-3.26-.65-4.52-1.94-1.41-1.44-2.15-3.37-2.22-5.8-.06-2.36.53-4.43,1.78-6.22,1.46-2.12,3.49-3.17,6.1-3.17,2.08,0,3.66.95,4.74,2.86.85,1.54,1.27,3.4,1.23,5.56-.03,2.31-.64,4.29-1.81,5.92-1.33,1.86-3.1,2.78-5.3,2.78ZM49.78,28.36c-1.53-.01-2.73.72-3.58,2.19-.68,1.18-1.02,2.52-1.02,4.03s.41,2.69,1.24,3.53c.69.7,1.5,1.05,2.42,1.05,1.08,0,2.02-.4,2.8-1.19.89-.88,1.35-2.06,1.41-3.55.15-4.03-.94-6.05-3.27-6.07Z" style="stroke-width: 0px;"/>
      <path d="M78.71,42.69c-.85,0-1.36-.45-1.5-1.36-.19-1.15-.38-2.76-.56-4.85l-.53-4.85c-.1-.72-.28-1.42-.53-2.11-.35-.94-.74-1.41-1.16-1.41-.39,0-1.1.33-2.16.98-1,.6-1.66,1.09-1.97,1.45-.01.98.02,1.96.08,2.94l.47,4.17c.2,1.65.3,3.01.3,4.08,0,.46-.14.84-.43,1.13s-.65.45-1.1.45-.82-.15-1.1-.45c-.29-.3-.43-.67-.43-1.13,0-1.26-.13-3.12-.38-5.59-.26-2.46-.38-4.33-.38-5.59,0-1.1-.16-1.96-.47-2.58-.73.33-1.47.88-2.22,1.63l-1.84,2.06c-.17.25-.43.58-.8.98,0,.63-.06,1.55-.17,2.77-.11,1.22-.17,2.12-.17,2.7,0,.31.05.75.15,1.31.1.56.15.97.15,1.22,0,.43-.16.79-.48,1.08s-.69.44-1.12.44c-1.18,0-1.77-1.34-1.77-4.02,0-.63.06-1.56.17-2.8.11-1.24.17-2.17.17-2.8,0-.55-.05-1.38-.15-2.49-.1-1.1-.15-1.94-.15-2.5,0-2.37.53-3.55,1.59-3.55.41,0,.78.18,1.12.53.34.35.51.74.51,1.16,0,.2-.03.51-.08.92s-.08.73-.08.95l.03,1.64c.54-1.12,1.34-2.12,2.39-3.02,1.05-.9,1.95-1.35,2.69-1.35,1.64,0,2.76.81,3.38,2.44.57-.76,1.26-1.33,2.05-1.71s1.7-.57,2.72-.57c1.74,0,2.93.94,3.56,2.81.12.38.34,1.84.64,4.39.29,1.79.67,4.78,1.13,8.96.03.42-.11.77-.42,1.06-.31.29-.69.44-1.14.44Z" style="stroke-width: 0px;"/>
      <path d="M86.45,34.3c0,.63.02,1.56.05,2.81.04,1.25.05,2.18.05,2.81,0,.46-.14.83-.42,1.13-.28.29-.65.44-1.11.44s-.82-.15-1.1-.44-.43-.67-.43-1.13c0-.63-.02-1.56-.05-2.81-.04-1.25-.05-2.18-.05-2.81,0-.98.05-2.2.16-3.67.1-1.46.16-2.69.16-3.67,0-.47.14-.85.43-1.14.29-.29.65-.44,1.1-.44s.82.15,1.1.44c.29.29.43.67.43,1.14,0,.98-.05,2.2-.16,3.67-.1,1.46-.16,2.69-.16,3.67ZM85.75,23.86c-.5,0-.93-.18-1.3-.53-.36-.35-.55-.78-.55-1.28s.18-.93.55-1.28c.36-.35.8-.53,1.3-.53s.93.18,1.29.53.54.78.54,1.28-.18.93-.54,1.28c-.36.35-.79.53-1.29.53Z" style="stroke-width: 0px;"/>
      <path d="M97.84,42.38c-2.14,0-3.92-.65-5.35-1.94-1.5-1.35-2.25-3.14-2.25-5.36s.7-4.3,2.11-6.55c1.56-2.5,3.32-3.75,5.28-3.75,1.02,0,2.16.24,3.42.72,1.59.62,2.39,1.37,2.39,2.25,0,.4-.13.75-.39,1.06-.26.31-.58.46-.97.46-.3,0-.57-.09-.79-.27-.22-.18-.44-.36-.65-.54-.61-.49-1.62-.73-3.02-.73-1.06,0-2.12.95-3.16,2.84-.95,1.74-1.42,3.25-1.42,4.52,0,1.38.47,2.46,1.41,3.25.88.74,2,1.11,3.38,1.11.63,0,1.29-.17,2-.5l1.81-.97c.31-.17.54-.25.67-.25.39,0,.72.15,1,.46.28.31.42.66.42,1.05,0,.76-.8,1.5-2.41,2.2-1.41.62-2.57.94-3.5.94Z" style="stroke-width: 0px;"/>
      <path d="M116.81,29.36c-.57,0-.97-.19-1.2-.58-.16-.27-.29-.83-.41-1.69-.78.2-1.98.56-3.61,1.09-1.68.67-2.52,1.49-2.53,2.47.31.12.62.2.92.25,2.4.43,4.18,1.02,5.35,1.77,1.7,1.09,2.55,2.68,2.55,4.75,0,1.7-.73,2.98-2.2,3.85-1.22.71-2.76,1.06-4.63,1.06-1.37,0-2.67-.23-3.91-.69-1.6-.58-2.41-1.4-2.41-2.44,0-.42.16-.78.49-1.09.33-.31.7-.47,1.12-.47.32,0,.74.25,1.25.75.25.24.81.44,1.69.59.7.12,1.29.19,1.77.19.88,0,1.65-.1,2.31-.31.97-.3,1.45-.78,1.45-1.44,0-1.42-.99-2.38-2.97-2.88l-1.63-.36c-1.39-.3-2.37-.66-2.95-1.06-.84-.58-1.27-1.46-1.27-2.64,0-2.18,1.03-3.73,3.08-4.66.63-.28,1.63-.62,3-1.01s2.36-.72,2.95-.99c.43-.19.89-.28,1.39-.28.45,0,.82.15,1.1.44.29.29.43.67.43,1.14,0,.3.07.75.2,1.33.13.58.2,1.03.2,1.33,0,.47-.14.85-.43,1.14-.29.29-.65.44-1.1.44Z" style="stroke-width: 0px;"/>
    </g>
    <g>
      <path d="M54.78,50.85c-.57,0-.97-.19-1.2-.58-.16-.27-.29-.83-.41-1.69-.78.2-1.98.56-3.61,1.09-1.68.67-2.52,1.49-2.53,2.47.31.11.62.2.92.25,2.4.43,4.18,1.02,5.35,1.77,1.7,1.09,2.55,2.68,2.55,4.75,0,1.7-.73,2.98-2.2,3.85-1.22.71-2.76,1.06-4.63,1.06-1.37,0-2.67-.23-3.91-.69-1.6-.58-2.41-1.4-2.41-2.44,0-.42.16-.78.49-1.09.33-.31.7-.47,1.12-.47.32,0,.74.25,1.25.75.25.24.81.44,1.69.59.7.12,1.29.19,1.77.19.88,0,1.65-.1,2.31-.31.97-.3,1.45-.78,1.45-1.44,0-1.42-.99-2.38-2.97-2.88l-1.63-.36c-1.39-.3-2.37-.66-2.95-1.06-.84-.58-1.27-1.46-1.27-2.64,0-2.18,1.03-3.73,3.08-4.66.63-.28,1.63-.62,3-1.01,1.38-.39,2.36-.72,2.95-.99.43-.19.89-.28,1.39-.28.45,0,.82.15,1.1.44.29.29.43.67.43,1.14,0,.3.07.75.2,1.33.13.58.2,1.03.2,1.33,0,.47-.14.85-.43,1.14s-.65.44-1.1.44Z" style="stroke-width: 0px;"/>
      <path d="M64.72,63.81c-1.75,0-3.26-.65-4.52-1.94-1.41-1.44-2.15-3.37-2.22-5.8-.06-2.36.53-4.43,1.78-6.22,1.46-2.12,3.49-3.17,6.1-3.17,2.08,0,3.66.95,4.74,2.86.85,1.54,1.27,3.4,1.23,5.56-.03,2.31-.64,4.29-1.81,5.92-1.33,1.86-3.1,2.78-5.3,2.78ZM65.65,49.85c-1.53,0-2.73.72-3.58,2.19-.68,1.18-1.02,2.52-1.02,4.03s.41,2.69,1.24,3.53c.69.7,1.5,1.05,2.42,1.05,1.08,0,2.02-.4,2.8-1.19.89-.88,1.35-2.06,1.41-3.55.15-4.03-.94-6.05-3.27-6.07Z" style="stroke-width: 0px;"/>
      <path d="M86.72,63.99c-.9,0-1.4-.49-1.52-1.47l-.44-3.42c-.15-1.22-.22-2.36-.22-3.42,0-.29.02-.79.05-1.48s.05-1.19.05-1.49c0-2.25-.42-3.38-1.25-3.38-1.17,0-2.28.69-3.35,2.08-.96,1.26-1.71,2.86-2.25,4.78-.02.41-.07.92-.14,1.53-.06.52-.09,1.03-.09,1.52,0,.31.03.78.09,1.41.06.63.09,1.09.09,1.41,0,.47-.14.85-.43,1.14s-.65.44-1.1.44-.83-.15-1.11-.44c-.28-.29-.42-.67-.42-1.14,0-.31-.03-.78-.1-1.41-.07-.63-.1-1.09-.1-1.41,0-1.07.08-2.56.23-4.46.15-1.9.23-3.39.23-4.46,0-.33-.02-.83-.05-1.48-.04-.66-.05-1.15-.05-1.48,0-.45.15-.82.45-1.1.3-.29.66-.43,1.1-.43.96,0,1.48.68,1.58,2.03l.05,1.83c1.75-2.33,3.55-3.5,5.39-3.5,1.67,0,2.83.73,3.49,2.2.45.98.69,2.43.73,4.35v1.58l-.02,1.45c0,.87.11,1.98.34,3.35.22,1.37.34,2.48.34,3.34,0,.46-.15.83-.45,1.12s-.67.43-1.12.43Z" style="stroke-width: 0px;"/>
      <path d="M101.08,50.85c-.57,0-.97-.19-1.2-.58-.16-.27-.29-.83-.41-1.69-.78.2-1.98.56-3.61,1.09-1.68.67-2.52,1.49-2.53,2.47.31.11.62.2.92.25,2.4.43,4.18,1.02,5.35,1.77,1.7,1.09,2.55,2.68,2.55,4.75,0,1.7-.73,2.98-2.2,3.85-1.22.71-2.76,1.06-4.63,1.06-1.37,0-2.67-.23-3.91-.69-1.6-.58-2.41-1.4-2.41-2.44,0-.42.16-.78.49-1.09.33-.31.7-.47,1.12-.47.32,0,.74.25,1.25.75.25.24.81.44,1.69.59.7.12,1.29.19,1.77.19.88,0,1.65-.1,2.31-.31.97-.3,1.45-.78,1.45-1.44,0-1.42-.99-2.38-2.97-2.88l-1.63-.36c-1.39-.3-2.37-.66-2.95-1.06-.84-.58-1.27-1.46-1.27-2.64,0-2.18,1.03-3.73,3.08-4.66.63-.28,1.63-.62,3-1.01,1.38-.39,2.36-.72,2.95-.99.43-.19.89-.28,1.39-.28.45,0,.82.15,1.1.44.29.29.43.67.43,1.14,0,.3.07.75.2,1.33.13.58.2,1.03.2,1.33,0,.47-.14.85-.43,1.14s-.65.44-1.1.44Z" style="stroke-width: 0px;"/>
    </g>
  </g>
</svg>